<?xml version="1.0" standalone="no"?>
<!DOCTYPE svg PUBLIC "-//W3C//DTD SVG 20010904//EN"
 "http://www.w3.org/TR/2001/REC-SVG-20010904/DTD/svg10.dtd">
<svg version="1.0" xmlns="http://www.w3.org/2000/svg"
 width="790.000000pt" height="790.000000pt" viewBox="0 0 790.000000 790.000000"
 preserveAspectRatio="xMidYMid meet">
<metadata>
Created by potrace 1.11, written by Peter Selinger 2001-2013
</metadata>
<g transform="translate(0.000000,790.000000) scale(0.100000,-0.100000)"
fill="#000000" stroke="none">
<path d="M4518 7725 c-1 -2 -43 -6 -93 -9 -86 -6 -110 -8 -200 -21 -22 -3 -59
-7 -82 -10 -39 -5 -278 -48 -333 -60 -14 -3 -35 -8 -46 -11 -212 -44 -586
-171 -808 -273 -78 -36 -91 -39 -173 -39 -266 0 -588 -140 -1033 -449 -43 -30
-243 -186 -280 -218 -103 -90 -145 -130 -248 -233 -252 -256 -491 -575 -630
-844 -99 -190 -143 -339 -144 -483 -1 -84 -3 -95 -39 -166 -81 -163 -172 -390
-230 -579 -30 -96 -84 -300 -93 -355 -3 -16 -8 -41 -11 -55 -18 -90 -41 -240
-50 -330 -4 -36 -9 -76 -12 -90 -9 -45 -11 -519 -2 -565 5 -25 11 -67 15 -93
24 -182 129 -374 246 -452 31 -20 42 -37 59 -90 115 -352 336 -846 505 -1130
65 -109 222 -343 256 -380 13 -14 36 -43 53 -65 49 -65 235 -246 315 -306 162
-120 339 -206 466 -224 22 -4 53 -10 71 -15 48 -12 242 -9 321 6 266 50 473
197 619 439 76 125 150 326 177 480 3 17 8 39 10 51 2 12 7 45 11 74 4 29 8
62 10 72 25 128 24 594 0 803 -5 39 -4 41 55 80 172 113 318 357 423 705 19
63 39 115 44 115 266 16 676 292 992 670 158 188 257 376 274 519 4 37 3 36
162 81 292 82 551 216 654 338 14 16 30 34 36 41 6 6 21 26 34 44 12 18 26 30
30 28 42 -26 780 -28 916 -2 11 2 42 7 69 10 82 11 287 57 326 73 8 3 20 7 25
8 25 6 156 61 215 91 152 76 307 213 378 334 74 125 110 246 119 395 20 370
-186 710 -630 1038 -67 50 -166 116 -212 143 -418 242 -776 400 -1265 559
l-175 57 -50 56 c-27 30 -76 73 -108 93 -61 40 -189 94 -248 105 -19 3 -38 7
-44 8 -5 2 -32 6 -60 10 -27 4 -61 10 -75 13 -27 6 -506 14 -512 8z m394 -549
c128 -9 187 -24 199 -49 5 -12 18 -78 29 -147 28 -171 30 -182 50 -325 5 -44
12 -91 15 -105 4 -24 30 -234 40 -330 3 -25 8 -63 10 -85 3 -22 7 -67 10 -100
3 -33 8 -76 11 -95 3 -19 7 -62 10 -95 2 -33 6 -78 8 -100 3 -22 8 -78 11
-125 4 -47 9 -101 11 -120 2 -19 7 -143 10 -276 l7 -241 -34 -26 c-45 -34
-157 -89 -249 -122 -71 -25 -292 -87 -295 -82 -1 1 -33 54 -70 117 -56 94
-303 491 -405 650 -120 188 -517 781 -633 945 -15 22 -65 94 -112 160 -46 66
-109 155 -140 198 -32 43 -56 79 -54 81 31 26 407 146 574 182 54 12 174 35
205 40 19 3 47 7 62 10 15 3 41 7 58 9 17 2 47 6 68 9 78 11 132 16 242 21 63
4 115 7 116 8 4 3 156 -1 246 -7z m923 -396 c71 -25 338 -133 415 -168 624
-282 994 -575 1066 -845 16 -60 12 -160 -8 -208 -70 -165 -342 -276 -748 -305
-187 -14 -636 -1 -656 19 -2 1 -6 50 -9 107 -11 191 -13 225 -19 275 -3 28 -8
82 -11 120 -3 39 -8 95 -11 125 -5 69 -13 144 -19 190 -3 19 -7 62 -10 95 -3
33 -8 71 -10 85 -3 14 -7 50 -10 80 -6 60 -7 69 -31 245 -29 219 -28 219 -7
210 10 -4 41 -15 68 -25z m-2997 -147 c81 -108 219 -304 384 -543 83 -121 444
-662 533 -800 37 -58 82 -127 100 -155 96 -147 302 -481 368 -595 63 -108 118
-210 131 -241 14 -34 14 -39 -13 -95 -42 -88 -128 -196 -259 -324 -124 -122
-151 -146 -247 -215 -73 -52 -138 -88 -187 -104 -36 -12 -42 -10 -190 65 -140
70 -431 231 -635 351 -293 172 -399 235 -663 396 -162 99 -307 187 -322 196
-165 99 -733 469 -797 520 l-24 18 17 54 c19 58 87 197 117 241 11 14 19 29
19 31 0 17 192 282 279 387 118 142 291 315 431 431 244 203 550 394 765 478
93 36 94 35 193 -96z m-1937 -2120 c13 -10 32 -22 41 -28 9 -5 132 -85 275
-176 310 -200 325 -210 683 -427 118 -72 238 -145 265 -162 44 -26 307 -182
390 -230 73 -42 445 -250 495 -276 52 -28 55 -31 52 -64 -7 -80 -111 -352
-169 -443 -57 -87 -29 -81 -325 -74 -145 4 -274 9 -288 11 -14 3 -72 7 -130
10 -58 4 -116 8 -130 10 -14 3 -59 7 -100 10 -74 6 -104 9 -230 21 -80 7 -119
11 -240 25 -52 6 -113 12 -135 15 -22 2 -94 11 -160 20 -66 8 -137 17 -157 19
-21 3 -53 7 -70 10 -18 3 -51 8 -73 11 -22 3 -53 7 -70 10 -16 3 -46 7 -65 9
-57 8 -143 26 -148 30 -4 4 -20 69 -28 116 -9 46 -11 354 -4 435 16 169 22
230 25 235 2 3 6 29 10 59 4 30 9 63 11 75 2 12 7 37 10 56 37 213 200 710
232 710 5 0 20 -8 33 -17z m189 -2297 c14 -3 52 -7 85 -11 72 -8 115 -13 175
-20 25 -3 65 -8 90 -10 25 -2 68 -7 95 -10 86 -11 118 -14 183 -20 126 -11
188 -16 222 -20 19 -2 82 -7 139 -10 58 -4 113 -9 124 -11 20 -4 253 -16 324
-18 24 0 43 -5 44 -11 0 -5 2 -19 5 -30 8 -41 18 -245 18 -375 0 -425 -72
-706 -219 -856 -50 -51 -71 -65 -119 -79 -179 -52 -368 23 -568 225 -243 247
-500 688 -708 1218 l-20 54 52 -6 c29 -4 64 -8 78 -10z"/>
</g>
</svg>
